<svg viewBox="0 0 2.12 2.1" xml:space="preserve" xmlns="http://www.w3.org/2000/svg" shape-rendering="geometricPrecision" text-rendering="geometricPrecision" image-rendering="optimizeQuality" fill-rule="evenodd" clip-rule="evenodd"><path d="M1.09 1.39v.44c0 .03-.01.06-.02.09h.18c.02 0 .04-.01.06-.03.01-.01.02-.04.02-.06V.96c0-.02-.01-.04-.02-.06-.02-.02-.04-.03-.06-.03H.7C.68.87.66.88.64.9.62.92.61.94.61.96v.16h.2c.08 0 .15.03.2.07.04.05.08.12.08.2zm.43-.27h.33c.08 0 .14.03.19.07.05.05.08.12.08.2v.44c0 .07-.03.14-.08.19-.05.05-.11.08-.19.08H.27A.273.273 0 0 1 0 1.83v-.44c0-.08.03-.15.08-.2.05-.04.12-.07.19-.07h.16V.96A.273.273 0 0 1 .7.69h.2V.11C.9.09.91.07.92.05.93.04.94.02.96.01.97 0 .99 0 1.01 0c.02 0 .04 0 .05.01l.44.26c.02.01.03.02.04.04.01.01.01.03.01.05 0 .02 0 .04-.01.05a.12.12 0 0 1-.05.05L1.05.6v.09h.2a.273.273 0 0 1 .27.27v.16zm-.02.8h.35c.03 0 .05-.01.06-.03.02-.01.03-.04.03-.06v-.44a.09.09 0 0 0-.03-.07c-.01-.01-.03-.02-.06-.02h-.33v.53c0 .03-.01.06-.02.09zM1.05.45l.3-.1-.3-.18v.28zm-.6 1.47a.292.292 0 0 1-.02-.09v-.21h.18v.21c0 .02.01.05.03.06.02.02.04.03.06.03h.11c.03 0 .05-.01.07-.03.01-.01.02-.04.02-.06v-.44c0-.03-.01-.05-.02-.07a.145.145 0 0 0-.07-.02H.27c-.02 0-.05.01-.06.02a.09.09 0 0 0-.03.07v.44c0 .02.01.05.03.06.01.02.04.03.06.03h.18z" fill="#e30013" fill-rule="nonzero" class="fill-000000"></path></svg>