<svg data-name="Layer 2" viewBox="0 0 64 64" xmlns="http://www.w3.org/2000/svg"><path d="M53 43a2 2 0 0 1 2 2v7h-4v-7a2 2 0 0 1 2-2Z" fill="#ffffff" class="fill-ffe94f"></path><path d="M47 28v13.86L31.97 48 17 41.86V28h30z" fill="#6b0002" class="fill-f74b50"></path><path d="M47 28v4l-15.03 5L17 32v-4h30z" fill="#6b0004" class="fill-d13f44"></path><path d="M31.47 12.09 4 22a1.5 1.5 0 0 0-1 1.41 1.51 1.51 0 0 0 1 1.43l27.46 9a1.5 1.5 0 0 0 1 0l27.47-9a1.51 1.51 0 0 0 1-1.43A1.5 1.5 0 0 0 60 22l-27.47-9.91a1.61 1.61 0 0 0-1.06 0Z" fill="#1a1a1a" class="fill-5c3b51"></path><path d="m60 22-27.47-9.91a1.61 1.61 0 0 0-1.06 0L4 22a1.5 1.5 0 0 0 0 2.84l.2.07 27.22-9.86a1.61 1.61 0 0 1 1.06 0L59.75 25l.21-.07a1.51 1.51 0 0 0 1-1.43A1.5 1.5 0 0 0 60 22Z" fill="#8f8f8f" class="fill-4a2e42"></path><circle cx="20" cy="34" r="1" fill="#692c2e" class="fill-2c2a3d"></circle><circle cx="20" cy="38" r="1" fill="#692c2e" class="fill-2c2a3d"></circle><path d="m60.34 21.1-27.47-10a2.6 2.6 0 0 0-1.74 0l-27.47 10a2.5 2.5 0 0 0 .07 4.73l12.27 4v12a1 1 0 0 0 .62.93l15 6.14a1.07 1.07 0 0 0 .76 0l15-6.14a1 1 0 0 0 .62-.93v-12l4-1.32v13.67A3 3 0 0 0 50 45v7a1 1 0 0 0 1 1h4a1 1 0 0 0 1-1v-7a3 3 0 0 0-2-2.82V27.89l6.27-2.06a2.5 2.5 0 0 0 .07-4.73ZM54 51h-2v-6a1 1 0 0 1 2 0Zm-8-9.81-14 5.73-14-5.73V30.53l13.2 4.34a2.53 2.53 0 0 0 1.6 0L46 30.53Zm13.64-17.26L32.17 33a.5.5 0 0 1-.34 0l-14.44-4.78-13-4.29a.5.5 0 0 1 0-.95L31.81 13a.62.62 0 0 1 .38 0l27.47 10a.5.5 0 0 1 0 .95Z" fill="#692c2e" class="fill-2c2a3d"></path></svg>