<?xml version="1.0" standalone="no"?>
<!DOCTYPE svg PUBLIC "-//W3C//DTD SVG 20010904//EN"
 "http://www.w3.org/TR/2001/REC-SVG-20010904/DTD/svg10.dtd">
<svg version="1.0" xmlns="http://www.w3.org/2000/svg"
 width="256.000000pt" height="256.000000pt" viewBox="0 0 256.000000 256.000000"
 preserveAspectRatio="xMidYMid meet">

<g transform="translate(0.000000,256.000000) scale(0.100000,-0.100000)"
fill="#000000" stroke="none">
<path d="M487 2419 c-29 -17 -49 -73 -37 -105 6 -14 130 -148 275 -297 l265
-270 0 -769 c0 -835 -2 -810 55 -836 46 -21 92 -15 127 17 l33 29 3 461 c2
394 5 461 17 461 12 0 15 -67 17 -460 l3 -460 28 -27 c23 -24 36 -28 81 -28
95 0 116 40 116 218 l0 107 215 0 215 0 0 325 0 325 -59 0 -59 0 -4 54 c-6 70
-19 86 -74 86 l-43 0 -3 288 -3 289 -30 49 c-17 26 -50 62 -74 79 l-43 30
-247 3 -248 3 -218 219 c-204 206 -221 220 -254 220 -20 0 -44 -5 -54 -11z
m1013 -1019 c0 -251 -2 -290 -15 -290 -13 0 -15 39 -15 290 0 251 2 290 15
290 13 0 15 -39 15 -290z m220 -245 l0 -45 -85 0 -85 0 0 45 0 45 85 0 85 0 0
-45z"/>
<path d="M1155 2406 c-58 -25 -115 -112 -115 -176 0 -98 94 -190 195 -190 101
0 195 92 195 190 0 65 -58 152 -117 176 -41 17 -119 17 -158 0z"/>
<path d="M1940 785 l0 -325 54 0 c44 0 60 5 85 26 l31 26 0 273 0 272 -26 27
c-23 22 -35 26 -85 26 l-59 0 0 -325z"/>
</g>
</svg>
