<?xml version="1.0" standalone="no"?>
<!DOCTYPE svg PUBLIC "-//W3C//DTD SVG 20010904//EN"
 "http://www.w3.org/TR/2001/REC-SVG-20010904/DTD/svg10.dtd">
<svg version="1.0" xmlns="http://www.w3.org/2000/svg"
 width="512.000000pt" height="512.000000pt" viewBox="0 0 512.000000 512.000000"
 preserveAspectRatio="xMidYMid meet">

<g transform="translate(0.000000,512.000000) scale(0.100000,-0.100000)"
fill="#000000" stroke="none">
<path d="M788 5104 c-339 -61 -621 -301 -733 -622 -58 -165 -56 -95 -52 -1963
2 -1595 4 -1719 20 -1779 100 -371 363 -632 723 -717 75 -17 161 -18 1814 -18
1653 0 1739 1 1814 18 362 85 638 361 723 723 17 75 18 161 18 1814 0 1653 -1
1739 -18 1814 -85 360 -346 623 -717 723 -61 16 -182 18 -1790 19 -1447 2
-1737 0 -1802 -12z m3510 -300 c190 -38 366 -173 449 -344 77 -158 73 -41 73
-1900 0 -1859 4 -1742 -73 -1900 -58 -119 -168 -229 -287 -287 -158 -77 -41
-73 -1900 -73 -1859 0 -1742 -4 -1900 73 -119 58 -229 168 -287 287 -77 158
-73 41 -73 1900 0 1859 -4 1742 73 1900 82 168 258 305 442 344 60 12 311 14
1738 15 1473 1 1677 -1 1745 -15z"/>
<path d="M1055 2696 c-124 -55 -114 -239 15 -277 23 -6 526 -9 1512 -7 1473 3
1477 3 1504 24 50 37 66 68 66 124 0 56 -16 87 -66 124 -27 21 -30 21 -1514
23 -1224 2 -1492 0 -1517 -11z"/>
</g>
</svg>
